<mxfile host="Electron" modified="2024-02-28T13:59:17.392Z" agent="Mozilla/5.0 (Windows NT 10.0; Win64; x64) AppleWebKit/537.36 (KHTML, like Gecko) draw.io/23.0.2 Chrome/120.0.6099.109 Electron/28.1.0 Safari/537.36" etag="j1pnrv8u3QKhoCGghM5R" version="23.0.2" type="device">
  <diagram name="PÃ¡gina-1" id="WONvZd88sz391IrMiuy9">
    <mxGraphModel dx="880" dy="532" grid="1" gridSize="10" guides="1" tooltips="1" connect="1" arrows="1" fold="1" page="1" pageScale="1" pageWidth="827" pageHeight="1169" math="0" shadow="0">
      <root>
        <mxCell id="0" />
        <mxCell id="1" parent="0" />
        <mxCell id="d5PfqQC54W7fQIAq870g-7" style="edgeStyle=orthogonalEdgeStyle;rounded=0;orthogonalLoop=1;jettySize=auto;html=1;entryX=0;entryY=0.5;entryDx=0;entryDy=0;endArrow=none;endFill=0;" edge="1" parent="1" source="d5PfqQC54W7fQIAq870g-1" target="d5PfqQC54W7fQIAq870g-5">
          <mxGeometry relative="1" as="geometry" />
        </mxCell>
        <mxCell id="d5PfqQC54W7fQIAq870g-19" style="edgeStyle=orthogonalEdgeStyle;rounded=0;orthogonalLoop=1;jettySize=auto;html=1;entryX=0.5;entryY=0;entryDx=0;entryDy=0;endArrow=none;endFill=0;" edge="1" parent="1" source="d5PfqQC54W7fQIAq870g-1" target="d5PfqQC54W7fQIAq870g-8">
          <mxGeometry relative="1" as="geometry" />
        </mxCell>
        <mxCell id="d5PfqQC54W7fQIAq870g-34" style="edgeStyle=orthogonalEdgeStyle;rounded=0;orthogonalLoop=1;jettySize=auto;html=1;endArrow=circle;endFill=0;" edge="1" parent="1" source="d5PfqQC54W7fQIAq870g-1">
          <mxGeometry relative="1" as="geometry">
            <mxPoint x="80" y="130" as="targetPoint" />
          </mxGeometry>
        </mxCell>
        <mxCell id="d5PfqQC54W7fQIAq870g-35" style="edgeStyle=orthogonalEdgeStyle;rounded=0;orthogonalLoop=1;jettySize=auto;html=1;endArrow=none;endFill=0;" edge="1" parent="1" source="d5PfqQC54W7fQIAq870g-1" target="d5PfqQC54W7fQIAq870g-36">
          <mxGeometry relative="1" as="geometry">
            <mxPoint x="180" y="70" as="targetPoint" />
          </mxGeometry>
        </mxCell>
        <mxCell id="d5PfqQC54W7fQIAq870g-1" value="Cliente" style="whiteSpace=wrap;html=1;align=center;" vertex="1" parent="1">
          <mxGeometry x="130" y="110" width="100" height="40" as="geometry" />
        </mxCell>
        <mxCell id="d5PfqQC54W7fQIAq870g-6" style="edgeStyle=orthogonalEdgeStyle;rounded=0;orthogonalLoop=1;jettySize=auto;html=1;entryX=1;entryY=0.5;entryDx=0;entryDy=0;endArrow=none;endFill=0;" edge="1" parent="1" source="d5PfqQC54W7fQIAq870g-2" target="d5PfqQC54W7fQIAq870g-5">
          <mxGeometry relative="1" as="geometry" />
        </mxCell>
        <mxCell id="d5PfqQC54W7fQIAq870g-24" style="edgeStyle=orthogonalEdgeStyle;rounded=0;orthogonalLoop=1;jettySize=auto;html=1;endArrow=none;endFill=0;" edge="1" parent="1" source="d5PfqQC54W7fQIAq870g-2" target="d5PfqQC54W7fQIAq870g-25">
          <mxGeometry relative="1" as="geometry">
            <mxPoint x="540" y="290" as="targetPoint" />
          </mxGeometry>
        </mxCell>
        <mxCell id="d5PfqQC54W7fQIAq870g-37" style="edgeStyle=orthogonalEdgeStyle;rounded=0;orthogonalLoop=1;jettySize=auto;html=1;endArrow=circle;endFill=0;" edge="1" parent="1" source="d5PfqQC54W7fQIAq870g-2">
          <mxGeometry relative="1" as="geometry">
            <mxPoint x="540" y="70" as="targetPoint" />
          </mxGeometry>
        </mxCell>
        <mxCell id="d5PfqQC54W7fQIAq870g-38" style="edgeStyle=orthogonalEdgeStyle;rounded=0;orthogonalLoop=1;jettySize=auto;html=1;endArrow=none;endFill=0;" edge="1" parent="1" source="d5PfqQC54W7fQIAq870g-2">
          <mxGeometry relative="1" as="geometry">
            <mxPoint x="630" y="130" as="targetPoint" />
          </mxGeometry>
        </mxCell>
        <mxCell id="d5PfqQC54W7fQIAq870g-2" value="Corretor" style="whiteSpace=wrap;html=1;align=center;" vertex="1" parent="1">
          <mxGeometry x="490" y="110" width="100" height="40" as="geometry" />
        </mxCell>
        <mxCell id="d5PfqQC54W7fQIAq870g-44" style="edgeStyle=orthogonalEdgeStyle;rounded=0;orthogonalLoop=1;jettySize=auto;html=1;endArrow=none;endFill=0;" edge="1" parent="1" source="d5PfqQC54W7fQIAq870g-3">
          <mxGeometry relative="1" as="geometry">
            <mxPoint x="180" y="490" as="targetPoint" />
          </mxGeometry>
        </mxCell>
        <mxCell id="d5PfqQC54W7fQIAq870g-3" value="imovel" style="whiteSpace=wrap;html=1;align=center;" vertex="1" parent="1">
          <mxGeometry x="130" y="410" width="100" height="40" as="geometry" />
        </mxCell>
        <mxCell id="d5PfqQC54W7fQIAq870g-21" style="edgeStyle=orthogonalEdgeStyle;rounded=0;orthogonalLoop=1;jettySize=auto;html=1;exitX=0.5;exitY=1;exitDx=0;exitDy=0;entryX=0.5;entryY=0;entryDx=0;entryDy=0;endArrow=none;endFill=0;" edge="1" parent="1" source="d5PfqQC54W7fQIAq870g-4" target="d5PfqQC54W7fQIAq870g-9">
          <mxGeometry relative="1" as="geometry" />
        </mxCell>
        <mxCell id="d5PfqQC54W7fQIAq870g-43" style="edgeStyle=orthogonalEdgeStyle;rounded=0;orthogonalLoop=1;jettySize=auto;html=1;entryX=0;entryY=0.5;entryDx=0;entryDy=0;endArrow=none;endFill=0;" edge="1" parent="1" source="d5PfqQC54W7fQIAq870g-4" target="d5PfqQC54W7fQIAq870g-42">
          <mxGeometry relative="1" as="geometry" />
        </mxCell>
        <mxCell id="d5PfqQC54W7fQIAq870g-4" value="Contrato" style="whiteSpace=wrap;html=1;align=center;" vertex="1" parent="1">
          <mxGeometry x="130" y="270" width="100" height="40" as="geometry" />
        </mxCell>
        <mxCell id="d5PfqQC54W7fQIAq870g-5" value="" style="shape=rhombus;perimeter=rhombusPerimeter;whiteSpace=wrap;html=1;align=center;" vertex="1" parent="1">
          <mxGeometry x="300" y="100" width="120" height="60" as="geometry" />
        </mxCell>
        <mxCell id="d5PfqQC54W7fQIAq870g-8" value="" style="shape=rhombus;perimeter=rhombusPerimeter;whiteSpace=wrap;html=1;align=center;" vertex="1" parent="1">
          <mxGeometry x="120" y="180" width="120" height="60" as="geometry" />
        </mxCell>
        <mxCell id="d5PfqQC54W7fQIAq870g-22" style="edgeStyle=orthogonalEdgeStyle;rounded=0;orthogonalLoop=1;jettySize=auto;html=1;endArrow=none;endFill=0;" edge="1" parent="1" source="d5PfqQC54W7fQIAq870g-9" target="d5PfqQC54W7fQIAq870g-3">
          <mxGeometry relative="1" as="geometry" />
        </mxCell>
        <mxCell id="d5PfqQC54W7fQIAq870g-9" value="" style="shape=rhombus;perimeter=rhombusPerimeter;whiteSpace=wrap;html=1;align=center;" vertex="1" parent="1">
          <mxGeometry x="120" y="330" width="120" height="60" as="geometry" />
        </mxCell>
        <mxCell id="d5PfqQC54W7fQIAq870g-16" value="(0,n)" style="text;html=1;align=center;verticalAlign=middle;resizable=0;points=[];autosize=1;strokeColor=none;fillColor=none;" vertex="1" parent="1">
          <mxGeometry x="245" y="128" width="50" height="30" as="geometry" />
        </mxCell>
        <mxCell id="d5PfqQC54W7fQIAq870g-17" value="(0,n)" style="text;html=1;align=center;verticalAlign=middle;resizable=0;points=[];autosize=1;strokeColor=none;fillColor=none;" vertex="1" parent="1">
          <mxGeometry x="420" y="130" width="50" height="30" as="geometry" />
        </mxCell>
        <mxCell id="d5PfqQC54W7fQIAq870g-18" value="(1,n)" style="text;html=1;align=center;verticalAlign=middle;resizable=0;points=[];autosize=1;strokeColor=none;fillColor=none;" vertex="1" parent="1">
          <mxGeometry x="190" y="230" width="50" height="30" as="geometry" />
        </mxCell>
        <mxCell id="d5PfqQC54W7fQIAq870g-20" style="edgeStyle=orthogonalEdgeStyle;rounded=0;orthogonalLoop=1;jettySize=auto;html=1;entryX=0.44;entryY=0.025;entryDx=0;entryDy=0;entryPerimeter=0;endArrow=none;endFill=0;exitX=0.5;exitY=1;exitDx=0;exitDy=0;" edge="1" parent="1" source="d5PfqQC54W7fQIAq870g-8" target="d5PfqQC54W7fQIAq870g-4">
          <mxGeometry relative="1" as="geometry">
            <Array as="points">
              <mxPoint x="190" y="240" />
              <mxPoint x="190" y="260" />
              <mxPoint x="174" y="260" />
            </Array>
          </mxGeometry>
        </mxCell>
        <mxCell id="d5PfqQC54W7fQIAq870g-23" value="(0,1)" style="text;html=1;align=center;verticalAlign=middle;resizable=0;points=[];autosize=1;strokeColor=none;fillColor=none;" vertex="1" parent="1">
          <mxGeometry x="190" y="158" width="50" height="30" as="geometry" />
        </mxCell>
        <mxCell id="d5PfqQC54W7fQIAq870g-26" style="edgeStyle=orthogonalEdgeStyle;rounded=0;orthogonalLoop=1;jettySize=auto;html=1;entryX=1;entryY=0.5;entryDx=0;entryDy=0;endArrow=none;endFill=0;" edge="1" parent="1" source="d5PfqQC54W7fQIAq870g-25" target="d5PfqQC54W7fQIAq870g-3">
          <mxGeometry relative="1" as="geometry" />
        </mxCell>
        <mxCell id="d5PfqQC54W7fQIAq870g-25" value="" style="shape=rhombus;perimeter=rhombusPerimeter;whiteSpace=wrap;html=1;align=center;" vertex="1" parent="1">
          <mxGeometry x="480" y="260" width="120" height="60" as="geometry" />
        </mxCell>
        <mxCell id="d5PfqQC54W7fQIAq870g-27" value="(1,1)" style="text;html=1;align=center;verticalAlign=middle;resizable=0;points=[];autosize=1;strokeColor=none;fillColor=none;" vertex="1" parent="1">
          <mxGeometry x="210" y="310" width="50" height="30" as="geometry" />
        </mxCell>
        <mxCell id="d5PfqQC54W7fQIAq870g-29" value="(1,n)" style="text;html=1;align=center;verticalAlign=middle;resizable=0;points=[];autosize=1;strokeColor=none;fillColor=none;" vertex="1" parent="1">
          <mxGeometry x="205" y="378" width="50" height="30" as="geometry" />
        </mxCell>
        <mxCell id="d5PfqQC54W7fQIAq870g-30" value="(0,n)" style="text;html=1;align=center;verticalAlign=middle;resizable=0;points=[];autosize=1;strokeColor=none;fillColor=none;" vertex="1" parent="1">
          <mxGeometry x="555" y="178" width="50" height="30" as="geometry" />
        </mxCell>
        <mxCell id="d5PfqQC54W7fQIAq870g-31" value="(0,n)" style="text;html=1;align=center;verticalAlign=middle;resizable=0;points=[];autosize=1;strokeColor=none;fillColor=none;" vertex="1" parent="1">
          <mxGeometry x="255" y="438" width="50" height="30" as="geometry" />
        </mxCell>
        <mxCell id="d5PfqQC54W7fQIAq870g-36" value="" style="ellipse;whiteSpace=wrap;html=1;aspect=fixed;fillColor=#000000;" vertex="1" parent="1">
          <mxGeometry x="170" y="60" width="20" height="20" as="geometry" />
        </mxCell>
        <mxCell id="d5PfqQC54W7fQIAq870g-39" value="" style="ellipse;whiteSpace=wrap;html=1;aspect=fixed;fillColor=#000000;" vertex="1" parent="1">
          <mxGeometry x="630" y="120" width="20" height="20" as="geometry" />
        </mxCell>
        <mxCell id="d5PfqQC54W7fQIAq870g-42" value="" style="ellipse;whiteSpace=wrap;html=1;aspect=fixed;fillColor=#000000;" vertex="1" parent="1">
          <mxGeometry x="270" y="280" width="20" height="20" as="geometry" />
        </mxCell>
        <mxCell id="d5PfqQC54W7fQIAq870g-46" value="" style="ellipse;whiteSpace=wrap;html=1;aspect=fixed;fillColor=#000000;" vertex="1" parent="1">
          <mxGeometry x="170" y="490" width="20" height="20" as="geometry" />
        </mxCell>
        <mxCell id="d5PfqQC54W7fQIAq870g-47" value="&lt;u&gt;&lt;b&gt;CPF&lt;/b&gt;&lt;/u&gt;" style="text;html=1;align=center;verticalAlign=middle;resizable=0;points=[];autosize=1;strokeColor=none;fillColor=none;" vertex="1" parent="1">
          <mxGeometry x="155" y="28" width="50" height="30" as="geometry" />
        </mxCell>
        <mxCell id="d5PfqQC54W7fQIAq870g-48" value="nome" style="text;html=1;align=center;verticalAlign=middle;resizable=0;points=[];autosize=1;strokeColor=none;fillColor=none;" vertex="1" parent="1">
          <mxGeometry x="30" y="115" width="50" height="30" as="geometry" />
        </mxCell>
        <mxCell id="d5PfqQC54W7fQIAq870g-49" value="&lt;b&gt;&lt;u&gt;Numero_contrato&lt;/u&gt;&lt;/b&gt;" style="text;html=1;align=center;verticalAlign=middle;resizable=0;points=[];autosize=1;strokeColor=none;fillColor=none;" vertex="1" parent="1">
          <mxGeometry x="230" y="250" width="120" height="30" as="geometry" />
        </mxCell>
        <mxCell id="d5PfqQC54W7fQIAq870g-52" value="EndereÃ§o" style="text;html=1;align=center;verticalAlign=middle;resizable=0;points=[];autosize=1;strokeColor=none;fillColor=none;" vertex="1" parent="1">
          <mxGeometry x="145" y="510" width="70" height="30" as="geometry" />
        </mxCell>
        <mxCell id="d5PfqQC54W7fQIAq870g-53" value="Nome" style="text;html=1;align=center;verticalAlign=middle;resizable=0;points=[];autosize=1;strokeColor=none;fillColor=none;" vertex="1" parent="1">
          <mxGeometry x="510" y="40" width="60" height="30" as="geometry" />
        </mxCell>
        <mxCell id="d5PfqQC54W7fQIAq870g-54" value="&lt;b&gt;&lt;u&gt;&lt;span style=&quot;white-space: pre;&quot;&gt;&#x9;&lt;/span&gt;NÃºmero&lt;/u&gt;&lt;/b&gt;" style="text;html=1;align=center;verticalAlign=middle;resizable=0;points=[];autosize=1;strokeColor=none;fillColor=none;" vertex="1" parent="1">
          <mxGeometry x="615" y="115" width="100" height="30" as="geometry" />
        </mxCell>
      </root>
    </mxGraphModel>
  </diagram>
</mxfile>
